<svg width="60" height="60" viewBox="0 0 60 60" fill="none" xmlns="http://www.w3.org/2000/svg">
<g clip-path="url(#clip0)">
<path d="M13 41C13.5523 41 14 40.5523 14 40C14 39.4477 13.5523 39 13 39C12.4477 39 12 39.4477 12 40C12 40.5523 12.4477 41 13 41Z" fill="#38B8EF"/>
<path d="M26 42C26.5523 42 27 41.5523 27 41C27 40.4477 26.5523 40 26 40C25.4477 40 25 40.4477 25 41C25 41.5523 25.4477 42 26 42Z" fill="#38B8EF"/>
<path d="M26 48C26.5523 48 27 47.5523 27 47C27 46.4477 26.5523 46 26 46C25.4477 46 25 46.4477 25 47C25 47.5523 25.4477 48 26 48Z" fill="#38B8EF"/>
<path d="M21 51C21.5523 51 22 50.5523 22 50C22 49.4477 21.5523 49 21 49C20.4477 49 20 49.4477 20 50C20 50.5523 20.4477 51 21 51Z" fill="#38B8EF"/>
<path d="M16 47C16.5523 47 17 46.5523 17 46C17 45.4477 16.5523 45 16 45C15.4477 45 15 45.4477 15 46C15 46.5523 15.4477 47 16 47Z" fill="#38B8EF"/>
<path d="M14 52C14.5523 52 15 51.5523 15 51C15 50.4477 14.5523 50 14 50C13.4477 50 13 50.4477 13 51C13 51.5523 13.4477 52 14 52Z" fill="#38B8EF"/>
<path d="M12 60H28C30.121 59.9976 32.1544 59.154 33.6542 57.6542C35.154 56.1544 35.9976 54.121 36 52V24C36 23.2044 35.6839 22.4413 35.1213 21.8787C34.5587 21.3161 33.7956 21 33 21H3.66999C3.16797 21.0003 2.6713 21.1032 2.21046 21.3024C1.74961 21.5015 1.3343 21.7926 0.989994 22.158C0.644586 22.5251 0.378998 22.9598 0.209983 23.4346C0.0409669 23.9095 -0.0278087 24.4142 0.00799406 24.917C0.0554393 25.4637 0.220258 25.9937 0.491203 26.4709C0.762149 26.948 1.13284 27.3611 1.57799 27.682L3.59999 29.2C3.72419 29.2931 3.82499 29.4139 3.89442 29.5528C3.96385 29.6916 3.99999 29.8448 3.99999 30V52C4.00238 54.121 4.846 56.1544 6.34577 57.6542C7.84555 59.154 9.87899 59.9976 12 60ZM2.77899 26.082C2.565 25.9335 2.38493 25.7412 2.25065 25.518C2.11638 25.2948 2.03095 25.0456 1.99999 24.787C1.98285 24.5578 2.0134 24.3276 2.08971 24.1108C2.16601 23.894 2.28642 23.6954 2.44334 23.5275C2.60026 23.3596 2.79027 23.226 3.0014 23.1352C3.21253 23.0444 3.44018 22.9984 3.66999 23H33C33.2652 23 33.5196 23.1054 33.7071 23.2929C33.8946 23.4804 34 23.7348 34 24V52C33.9984 53.5908 33.3658 55.116 32.2409 56.2409C31.116 57.3658 29.5908 57.9984 28 58H12C10.4092 57.9984 8.88398 57.3658 7.75911 56.2409C6.63423 55.116 6.00158 53.5908 5.99999 52V30C5.99922 29.5344 5.89045 29.0753 5.68222 28.6589C5.474 28.2424 5.17201 27.88 4.79999 27.6L2.77899 26.082Z" fill="#38B8EF"/>
<path d="M12 55.9999H28C29.0609 55.9999 30.0783 55.5785 30.8284 54.8283C31.5786 54.0782 32 53.0608 32 51.9999V36.0849C32.0052 35.5316 31.8589 34.9875 31.5768 34.5116C31.2948 34.0356 30.8878 33.646 30.4 33.3849C29.9043 33.1165 29.3454 32.9869 28.7821 33.0098C28.2189 33.0327 27.6723 33.2072 27.2 33.5149C26.6994 33.8534 26.1039 34.0233 25.5 33.9999C24.7023 34.0138 23.929 33.7247 23.336 33.1909C22.3939 32.4207 21.2144 32 19.9975 32C18.7806 32 17.6012 32.4207 16.659 33.1909C16.0675 33.7239 15.2961 34.0129 14.5 33.9999C13.8989 34.0238 13.3058 33.8553 12.807 33.5189C12.3343 33.2121 11.7878 33.0383 11.2247 33.0156C10.6617 32.9929 10.1029 33.1222 9.60701 33.3899C9.11909 33.6508 8.71198 34.0404 8.4299 34.5164C8.14783 34.9924 8.00157 35.5366 8.00701 36.0899V51.9999C8.00701 53.0595 8.42748 54.0759 9.17611 54.8258C9.92474 55.5758 10.9404 55.998 12 55.9999ZM10 36.0879C9.99675 35.895 10.0469 35.7049 10.1448 35.5387C10.2427 35.3725 10.3847 35.2365 10.555 35.1459C10.7188 35.0564 10.9024 35.0093 11.089 35.0089C11.3122 35.01 11.5303 35.0756 11.717 35.1979C12.5403 35.7447 13.512 36.0248 14.5 35.9999C15.7192 36.014 16.9031 35.5915 17.838 34.8089C18.4377 34.2873 19.2057 34 20.0005 34C20.7953 34 21.5633 34.2873 22.163 34.8089C23.0977 35.5912 24.2812 36.0136 25.5 35.9999C26.4905 36.0235 27.4642 35.7418 28.289 35.1929C28.459 35.0796 28.6568 35.0149 28.8609 35.0059C29.065 34.9969 29.2677 35.0439 29.447 35.1419C29.6178 35.2324 29.7601 35.3684 29.8582 35.5348C29.9564 35.7013 30.0065 35.8917 30.003 36.0849V51.9999C30.003 52.5303 29.7923 53.039 29.4172 53.4141C29.0422 53.7892 28.5335 53.9999 28.003 53.9999H12C11.4696 53.9999 10.9609 53.7892 10.5858 53.4141C10.2107 53.039 10 52.5303 10 51.9999V36.0879Z" fill="#38B8EF"/>
<path d="M54 1.9999H32.816C32.5812 1.33322 32.118 0.771154 31.5085 0.413259C30.8989 0.0553652 30.1824 -0.0752632 29.4858 0.0445109C28.7892 0.164285 28.1575 0.526732 27.7025 1.06766C27.2475 1.60858 26.9987 2.29307 27 2.9999V7.9999H23.5C21.5189 8.0258 19.6263 8.82429 18.2253 10.2252C16.8244 11.6262 16.0259 13.5188 16 15.4999C16.0001 16.3914 16.3405 17.2492 16.9515 17.8983C17.5625 18.5474 18.3982 18.9389 19.288 18.9929C19.355 18.9929 19.423 18.9989 19.488 18.9989C20.3588 18.9954 21.1949 18.657 21.823 18.0539C22.1933 17.7052 22.4886 17.2847 22.691 16.8181C22.8934 16.3515 22.9985 15.8485 23 15.3399C23.0003 14.9846 23.1415 14.6439 23.3928 14.3927C23.644 14.1414 23.9847 14.0002 24.34 13.9999H27.184C27.3876 14.5844 27.7682 15.0911 28.2727 15.4497C28.7773 15.8082 29.381 16.0008 30 16.0008C30.619 16.0008 31.2227 15.8082 31.7273 15.4497C32.2318 15.0911 32.6124 14.5844 32.816 13.9999H54C55.5913 13.9999 57.1174 13.3678 58.2426 12.2425C59.3679 11.1173 60 9.5912 60 7.9999C60 6.4086 59.3679 4.88248 58.2426 3.75726C57.1174 2.63204 55.5913 1.9999 54 1.9999ZM57.878 7.0639C57.2176 7.14767 56.5707 7.3157 55.953 7.5639C55.2082 7.87345 54.4063 8.02204 53.6 7.9999C52.8233 8.01227 52.0716 7.72588 51.5 7.1999C50.5763 6.42722 49.4103 6.00386 48.206 6.00386C47.0017 6.00386 45.8357 6.42722 44.912 7.1999C44.3329 7.71765 43.5833 8.00387 42.8065 8.00387C42.0297 8.00387 41.2801 7.71765 40.701 7.1999C39.7759 6.42723 38.6088 6.00397 37.4035 6.00397C36.1982 6.00397 35.0311 6.42723 34.106 7.1999C33.773 7.46861 33.3998 7.68324 33 7.8359V3.9999H54C54.8962 4.00235 55.7656 4.3057 56.4688 4.86131C57.172 5.41691 57.6683 6.19257 57.878 7.0639ZM21 15.3399C20.9991 15.5756 20.9504 15.8086 20.8567 16.0249C20.763 16.2411 20.6263 16.4361 20.455 16.5979C20.3165 16.7318 20.1524 16.8363 19.9724 16.905C19.7925 16.9737 19.6005 17.0053 19.408 16.9979C19.0283 16.9701 18.6728 16.8007 18.4121 16.5233C18.1513 16.2459 18.0042 15.8806 18 15.4999C18.0192 14.0472 18.6048 12.6593 19.6321 11.632C20.6594 10.6047 22.0473 10.0191 23.5 9.9999H27V11.9999H24.34C23.4545 12.001 22.6056 12.3532 21.9794 12.9793C21.3533 13.6055 21.0011 14.4544 21 15.3399ZM31 12.9999C31 13.2651 30.8946 13.5195 30.7071 13.707C30.5196 13.8945 30.2652 13.9999 30 13.9999C29.7348 13.9999 29.4804 13.8945 29.2929 13.707C29.1054 13.5195 29 13.2651 29 12.9999V2.9999C29 2.73468 29.1054 2.48033 29.2929 2.29279C29.4804 2.10526 29.7348 1.9999 30 1.9999C30.2652 1.9999 30.5196 2.10526 30.7071 2.29279C30.8946 2.48033 31 2.73468 31 2.9999V12.9999ZM54 11.9999H33V9.9069C33.8452 9.73408 34.635 9.35635 35.3 8.8069C35.8797 8.28914 36.6297 8.00295 37.407 8.00295C38.1843 8.00295 38.9343 8.28914 39.514 8.8069C40.4383 9.57963 41.6047 10.003 42.8095 10.003C44.0143 10.003 45.1807 9.57963 46.105 8.8069C46.6834 8.28923 47.4323 8.00301 48.2085 8.00301C48.9847 8.00301 49.7336 8.28923 50.312 8.8069C51.2281 9.5884 52.3959 10.0121 53.6 9.9999C54.643 10.0216 55.6794 9.83032 56.646 9.4379C57.0278 9.28447 57.4237 9.16859 57.828 9.0919C57.5922 9.92651 57.0911 10.6617 56.4005 11.1863C55.7099 11.7109 54.8673 11.9965 54 11.9999Z" fill="#38B8EF"/>
</g>
<defs>
<clipPath id="clip0">
<rect width="60" height="60" fill="white"/>
</clipPath>
</defs>
</svg>
