<svg width="25" height="25" viewBox="0 0 25 25" fill="none" xmlns="http://www.w3.org/2000/svg">
<path d="M20.3125 0H4.6875C2.09954 0 0 2.09954 0 4.6875V20.3102C0 22.9005 2.09954 25 4.6875 25H20.3102C22.9005 25 24.9977 22.9005 24.9977 20.3125V4.6875C25 2.09954 22.9005 0 20.3125 0ZM22.9653 20.2153C22.9653 21.7338 21.7361 22.963 20.2176 22.963H15.5602V13.1019H18.7639V10.5486H15.5602V9.62269C15.5602 8.05556 16.1435 7.27083 17.3148 7.27083C17.5972 7.27083 17.9097 7.31713 18.2523 7.40972C18.5949 7.50231 18.8912 7.61343 19.1435 7.74769L19.8148 5.21759C18.7315 4.70139 17.6528 4.44213 16.5856 4.44213C15.2361 4.44213 14.1667 4.91667 13.3819 5.86806C12.5972 6.81944 12.206 8.11343 12.206 9.74769V10.5486H10.4792V13.1019H12.206V22.963H4.78472C3.2662 22.963 2.03704 21.7338 2.03704 20.2153V4.78472C2.03704 3.2662 3.2662 2.03704 4.78472 2.03704H20.2176C21.7361 2.03704 22.9653 3.2662 22.9653 4.78472V20.2153Z" fill="#3C5CCD"/>
</svg>
