<svg width="25" height="25" viewBox="0 0 25 25" fill="none" xmlns="http://www.w3.org/2000/svg">
<path d="M20.3125 0H4.6875C2.09954 0 0 2.09954 0 4.6875V20.3102C0 22.9005 2.09954 25 4.6875 25H20.3102C22.9005 25 24.9977 22.9005 24.9977 20.3125V4.6875C25 2.09954 22.9005 0 20.3125 0ZM22.963 20.2153C22.963 21.7338 21.7338 22.963 20.2153 22.963H4.78472C3.2662 22.963 2.03704 21.7338 2.03704 20.2153V4.78472C2.03704 3.2662 3.2662 2.03704 4.78472 2.03704H20.2176C21.7338 2.03704 22.963 3.2662 22.963 4.78472V20.2153Z" fill="#3C5CCD"/>
<path d="M12.5393 18.9653C11.4051 18.9514 10.3333 18.6898 9.34258 18.1273C8.2986 17.5347 7.46295 16.7292 6.87035 15.6829C6.456 14.9514 6.19906 14.1667 6.09258 13.3333C6.05554 13.044 5.99535 12.7523 6.00924 12.4653C6.02776 12.0555 6.08332 11.6458 6.16202 11.243C6.38424 10.1042 6.8935 9.0949 7.62498 8.19906C8.19906 7.49768 8.9236 6.9861 9.74304 6.6111C10.7153 6.16666 11.7407 5.97916 12.8055 6.04397C14.3704 6.14119 15.7523 6.69906 16.9167 7.75693C17.743 8.50925 18.3264 9.42823 18.669 10.493C18.9375 11.3264 19.0393 12.1805 18.9606 13.0509C18.8426 14.3704 18.3611 15.5463 17.5231 16.5741C16.8217 17.4329 15.9537 18.0741 14.9282 18.4954C14.1667 18.8102 13.368 18.9676 12.5393 18.9653ZM16.6435 12.3588C16.6458 12.1551 16.6227 11.8634 16.5555 11.5787C16.3009 10.5069 15.7014 9.67129 14.7986 9.05092C14.2153 8.65045 13.5694 8.41434 12.8634 8.37499C12.0926 8.33101 11.3542 8.47453 10.662 8.81712C9.82406 9.23147 9.1898 9.85184 8.77545 10.6921C8.42128 11.412 8.32174 12.1736 8.4236 12.9653C8.53008 13.7847 8.831 14.5231 9.35878 15.162C9.99304 15.9305 10.7986 16.4167 11.787 16.5741C12.6134 16.706 13.4167 16.5926 14.1852 16.2662C14.9606 15.9352 15.5717 15.4097 16.0139 14.6921C16.4352 14.0023 16.6273 13.2477 16.6435 12.3588Z" fill="#3C5CCD"/>
<path d="M18.2454 4.991C18.2523 4.19933 18.7847 3.61137 19.5718 3.53498C20.1042 3.48406 20.581 3.61832 20.9606 4.00952C21.2847 4.34054 21.3935 4.75489 21.3681 5.20628C21.3218 6.01646 20.7153 6.50489 20.0185 6.58591C19.5532 6.63915 19.1296 6.53498 18.7662 6.2248C18.493 5.991 18.3403 5.69008 18.2824 5.34054C18.2662 5.2248 18.2569 5.10674 18.2454 4.991Z" fill="#3C5CCD"/>
</svg>
