<svg width="60" height="60" viewBox="0 0 60 60" fill="none" xmlns="http://www.w3.org/2000/svg">
<path d="M59.5397 18.8595C58.3716 15.2736 54.7371 12.9833 50.998 13.1746C51.9179 11.7858 52.4032 10.179 52.4032 8.49574C52.4032 3.81117 48.592 0 43.9075 0C41.7591 0 39.7102 0.803086 38.1354 2.26184L14.5845 21.5944C14.5553 21.6183 14.5288 21.6442 14.5035 21.6709C12.0929 23.7671 10.5664 26.8552 10.5664 30.2931C10.5664 31.3362 10.7078 32.3468 10.9709 33.3075C10.9709 33.3075 4.31355 39.5665 2.84484 41.0621C1.25063 42.6855 0.0201569 45.701 0.0201569 48.5747C0.0201569 54.8747 5.14547 60 11.4455 60C16.1895 60 20.2669 57.0935 21.9919 52.9679C23.7168 57.0935 27.7942 60 32.538 60C37.0738 60 41.0005 57.3431 42.8441 53.5039L56.3178 30.3551C56.8895 29.3729 55.3702 28.4885 54.7986 29.4708L43.9529 48.1046C43.7054 42.0219 38.6805 37.1495 32.538 37.1495C32.0375 37.1495 31.5444 37.1822 31.0607 37.2449C31.0607 37.2449 46.5514 18.7644 49.3321 15.3503C52.5851 13.8306 56.8152 16.1716 57.8682 19.404C58.4646 21.2346 58.3031 23.2581 57.4252 24.9555C56.9032 25.965 58.4646 26.7724 58.9866 25.7631C60.0792 23.6504 60.2808 21.1342 59.5397 18.8595ZM39.2781 3.59801C40.6339 2.48437 42.108 1.75781 43.9075 1.75781C47.6228 1.75781 50.6455 4.78043 50.6455 8.49586C50.6455 9.95766 50.1859 11.3469 49.3161 12.5148C49.3161 12.5148 34.3932 30.4564 33.3252 31.7457C33.3859 31.27 33.4171 30.785 33.4171 30.2931C33.4171 23.9932 28.2918 18.8678 21.9919 18.8678C21.51 18.8678 21.035 18.8981 20.5688 18.9562L39.2781 3.59801ZM21.9918 20.6256C27.3224 20.6256 31.6591 24.9623 31.6591 30.2931C31.6591 35.5289 27.2316 39.9605 21.9918 39.9605C16.6611 39.9605 12.3243 35.6237 12.3243 30.2931C12.3244 24.9625 16.6611 20.6256 21.9918 20.6256ZM23.4789 41.6216C22.8786 42.4018 22.3766 43.2612 21.9918 44.1816C21.6069 43.2612 21.1049 42.4018 20.5046 41.6216C20.9916 41.6851 21.4879 41.7183 21.9918 41.7183C22.4957 41.7183 22.9921 41.6851 23.4789 41.6216ZM11.6312 35.1057C11.987 35.8686 12.4245 36.5858 12.9326 37.2462C12.4457 37.1827 11.9494 37.1495 11.4455 37.1495C10.6991 37.1495 9.96938 37.2223 9.2625 37.3596L11.6312 35.1057ZM11.4455 58.2422C6.11484 58.2422 1.77797 53.9054 1.77797 48.5747C1.77797 46.105 2.71008 43.8497 4.23938 42.1391C6.12762 40.1447 8.66285 38.9073 11.4455 38.9073C16.7761 38.9073 21.113 43.2441 21.113 48.5748C21.113 53.9055 16.7761 58.2422 11.4455 58.2422ZM42.2055 48.5747C42.2055 53.9053 37.8688 58.2422 32.538 58.2422C27.2074 58.2422 22.8707 53.9054 22.8707 48.5747C22.8707 43.2439 27.2074 38.9072 32.538 38.9072C37.8688 38.9073 42.2055 43.2441 42.2055 48.5747Z" fill="#10CFC4"/>
<path d="M21.9918 38.7886C26.6762 38.7886 30.4874 34.9776 30.4874 30.293C30.4874 25.6084 26.6764 21.7974 21.9918 21.7974C20.3656 21.7974 18.7821 22.2625 17.4126 23.1423C16.4564 23.7565 17.4066 25.2354 18.3626 24.6212C19.4482 23.9238 20.7032 23.5552 21.9918 23.5552C25.707 23.5552 28.7296 26.5777 28.7296 30.293C28.7296 34.0083 25.7071 37.0308 21.9918 37.0308C18.2765 37.0308 15.2541 34.0083 15.2541 30.293C15.2541 29.4355 15.4157 28.5967 15.7344 27.8001C16.1566 26.745 14.5245 26.0921 14.1024 27.1472C13.7002 28.1526 13.4963 29.211 13.4963 30.2931C13.4963 34.9776 17.3073 38.7886 21.9918 38.7886Z" fill="#10CFC4"/>
<path d="M11.4454 40.0791C6.7609 40.0791 2.94984 43.8902 2.94984 48.5747C2.94984 53.2593 6.7609 57.0702 11.4454 57.0702C16.1298 57.0702 19.941 53.2592 19.941 48.5746C19.941 43.89 16.1298 40.0791 11.4454 40.0791ZM11.4454 55.3124C7.73016 55.3124 4.70766 52.2899 4.70766 48.5746C4.70766 44.8593 7.73016 41.8368 11.4454 41.8368C15.1605 41.8368 18.1832 44.8593 18.1832 48.5746C18.1832 52.2899 15.1605 55.3124 11.4454 55.3124Z" fill="#10CFC4"/>
<path d="M32.5382 57.0704C37.2227 57.0704 41.0337 53.2593 41.0337 48.5747C41.0337 43.8902 37.2227 40.0791 32.5382 40.0791C27.8537 40.0791 24.0426 43.8902 24.0426 48.5747C24.0426 53.2593 27.8537 57.0704 32.5382 57.0704ZM32.5382 41.837C36.2534 41.837 39.2759 44.8595 39.2759 48.5748C39.2759 52.2902 36.2534 55.3125 32.5382 55.3125C28.823 55.3125 25.8004 52.29 25.8004 48.5747C25.8004 44.8594 28.823 41.837 32.5382 41.837Z" fill="#10CFC4"/>
</svg>
