<svg width="60" height="54" viewBox="0 0 60 54" fill="none" xmlns="http://www.w3.org/2000/svg">
<path d="M30 0.515625C19.6234 0.515625 0 1.97864 0 7.51575V13.5157C0 14.5557 0.68985 15.4955 2.03522 16.314C2.108 18.0709 2.48703 19.8012 3.15445 21.4276L6.97998 47.4465L7.01019 47.6561C7.04407 47.8974 7.16537 48.1176 7.35123 48.2755C9.40521 51.8689 20.2171 53.5155 30 53.5155C39.7829 53.5155 50.5948 51.8689 52.6492 48.2755C52.8346 48.118 52.9564 47.8978 52.9903 47.6566L56.846 21.4267C57.513 19.8003 57.8915 18.0704 57.9648 16.3144C59.3124 15.4923 60 14.5534 60 13.5157V7.51575C60 1.97864 40.3766 0.515625 30 0.515625V0.515625ZM30 2.51559C48.1174 2.51559 58 5.81836 58 7.51575C58 8.0527 57.0081 8.75034 55.0822 9.453C49.7191 7.63889 40.1793 6.51553 30 6.51553C19.8207 6.51553 10.2809 7.63889 4.91776 9.453C2.99194 8.75034 1.99997 8.0527 1.99997 7.51575C1.99997 5.81836 11.8826 2.51559 30 2.51559ZM51.4375 10.5049C44.3875 11.962 37.1979 12.6367 30 12.5154C22.8021 12.6367 15.6125 11.962 8.56247 10.5049C15.6175 9.0845 22.804 8.418 30 8.5155C37.196 8.418 44.3825 9.0845 51.4375 10.5049ZM54.9023 20.8976C52.2304 26.9565 45.1753 29.7832 41.5073 30.8763C40.9547 30.0286 40.0117 29.5168 39.0001 29.5154H20.9999C19.9873 29.5168 19.0439 30.0295 18.4918 30.8782C15.5997 30.0565 12.86 28.7706 10.3793 27.0714C8.09097 25.5324 6.26495 23.3988 5.09811 20.9003L4.5932 17.4657C9.87808 19.3384 19.4907 20.5158 30 20.5158C40.5331 20.5158 50.1649 19.3329 55.4063 17.4689L54.9023 20.8976ZM20.9999 31.5158H39.0001C39.5522 31.5158 39.9998 31.9635 39.9998 32.5156C39.9998 33.0681 39.5522 33.5158 39.0001 33.5158H20.9999C20.4478 33.5158 20.0002 33.0681 20.0002 32.5156C20.0002 31.9635 20.4478 31.5158 20.9999 31.5158ZM51.0809 46.8825C51.042 46.9498 51.0118 47.0217 50.9903 47.0967C50.6158 48.9424 42.4498 51.5155 30 51.5155C17.5502 51.5155 9.38416 48.9424 9.01016 47.0967C8.98819 47.0203 8.95706 46.9471 8.91724 46.8779L5.79254 25.6258C6.81107 26.7812 7.96188 27.8134 9.22119 28.7006C11.9124 30.5486 14.8888 31.942 18.0313 32.8255C18.1865 34.3499 19.4678 35.5107 20.9999 35.5158H39.0001C40.5318 35.5107 41.8126 34.3503 41.9687 32.8269C45.5186 31.7896 50.6918 29.6711 54.2056 25.6345L51.0809 46.8825ZM56.6254 14.7795C56.6121 14.7846 56.602 14.7942 56.5892 14.8001C56.5659 14.8125 56.5471 14.8244 56.5233 14.8368C56.424 14.8912 56.3219 14.9407 56.2175 14.9846C51.7451 17.1297 41.4546 18.5158 30 18.5158C18.5454 18.5158 8.25485 17.1297 3.73306 14.9617C3.64197 14.9233 3.55316 14.8798 3.46664 14.8308H3.46619C3.43323 14.8093 3.3989 14.7901 3.36319 14.7731C2.36435 14.2266 1.99997 13.7569 1.99997 13.5157V10.2889C7.25189 13.5623 21.6307 14.5154 30 14.5154C38.3693 14.5154 52.7481 13.5623 58 10.2889V13.5157C58 13.7569 57.6347 14.2275 56.6254 14.7795Z" fill="#3C5CCD"/>
</svg>
