<svg width="60" height="60" viewBox="0 0 60 60" fill="none" xmlns="http://www.w3.org/2000/svg">
<path d="M51.2133 8.78672C45.5469 3.12059 38.0133 0 30 0C21.9867 0 14.4531 3.12059 8.78672 8.78672C3.12059 14.4531 0 21.9867 0 30C0 38.0133 3.12059 45.5469 8.78672 51.2133C14.4531 56.8794 21.9867 60 30 60C38.0133 60 45.5469 56.8794 51.2133 51.2133C56.8794 45.5469 60 38.0133 60 30C60 21.9867 56.8794 14.4531 51.2133 8.78672ZM30 56.4844C22.9257 56.4844 16.275 53.7295 11.2727 48.7273C6.27047 43.725 3.51562 37.0743 3.51562 30C3.51562 23.515 5.83219 17.3868 10.0714 12.5572L18.8617 21.3475C16.453 24.7545 16.1092 27.9628 16.323 30.234L14.205 27.4792L13.9413 32.2049C13.9241 32.515 13.9152 32.8209 13.9152 33.1143C13.9152 40.461 18.8643 46.6737 25.6036 48.5932C23.413 47.1545 21.9626 44.6773 21.9626 41.8663C21.9626 39.5859 22.9363 37.4038 24.634 35.8795L26.0756 34.5852L27.2241 36.1454C27.3812 36.3589 27.4993 36.4522 27.5579 36.4897C27.6789 36.4113 27.9342 36.143 28.0968 35.6264C28.3828 34.7171 28.193 33.6855 27.5889 32.867L25.1555 29.5695L29.2218 30.079C29.4558 30.1083 31.5695 30.4118 33.7039 32.0159C35.6868 33.506 38.0504 36.4247 38.0504 41.8664C38.0504 44.6774 36.6 47.1546 34.4093 48.5933C37.2239 47.7916 39.7257 46.2407 41.6857 44.1716L47.4429 49.9288C42.6132 54.1678 36.485 56.4844 30 56.4844ZM49.9286 47.4427L43.8293 41.3434C45.2691 38.934 46.0975 36.1191 46.0975 33.1141C46.0975 31.7179 45.9172 30.3291 45.5619 28.9863L44.5816 25.256L42.4147 28.4394C42.4084 28.4484 42.0783 28.9161 41.4189 29.5702C41.3607 27.8517 41.1534 25.7134 40.6063 23.4879C38.8793 16.462 34.6305 11.9968 28.3193 10.5751L25.4688 9.93305L26.237 12.7521C27.7577 18.3333 26.9033 21.8667 25.6151 23.1292L12.5572 10.0713C17.3869 5.83219 23.515 3.51562 30 3.51562C37.0743 3.51562 43.725 6.27047 48.7273 11.2727C53.7295 16.275 56.4844 22.9257 56.4844 30C56.4844 36.485 54.1678 42.6132 49.9286 47.4427Z" fill="#FA996C"/>
</svg>
